<?xml version="1.0" standalone="no"?>
<!DOCTYPE svg PUBLIC "-//W3C//DTD SVG 20010904//EN"
 "http://www.w3.org/TR/2001/REC-SVG-20010904/DTD/svg10.dtd">
<svg version="1.0" xmlns="http://www.w3.org/2000/svg"
 width="294.000000pt" height="294.000000pt" viewBox="0 0 294.000000 294.000000"
 preserveAspectRatio="xMidYMid meet">
<metadata>
Created by potrace 1.11, written by Peter Selinger 2001-2013
</metadata>
<g transform="translate(0.000000,294.000000) scale(0.100000,-0.100000)"
fill="#000000" stroke="none">
<path d="M1 2363 c0 -572 1 -577 18 -518 25 84 47 130 96 206 101 156 254 268
442 321 65 18 102 22 223 22 128 -1 155 -4 235 -28 128 -38 222 -95 309 -187
66 -68 146 -197 146 -233 0 -10 -219 -103 -223 -95 -1 2 -17 35 -36 73 -64
127 -171 219 -295 252 -70 19 -229 18 -297 -2 -187 -55 -323 -199 -374 -395
-25 -93 -16 -328 15 -419 91 -269 338 -406 623 -345 177 37 324 178 353 338
l6 37 -271 0 -271 0 0 100 0 100 385 0 385 0 0 -380 0 -380 -110 0 -110 0 6
47 c9 73 32 159 59 220 14 31 25 57 25 59 0 2 -22 4 -50 4 l-50 0 -26 -52
c-108 -214 -312 -322 -571 -304 -314 22 -541 216 -627 537 -13 49 -15 -16 -15
-643 l-1 -698 1470 0 1470 0 0 1085 0 1085 -437 -2 -438 -3 -3 -242 -2 -243
360 0 360 0 0 -100 0 -100 -360 0 -360 0 0 -325 0 -325 -110 0 -110 0 0 770 0
770 550 0 550 0 0 285 0 285 -1470 0 -1470 0 1 -577z"/>
</g>
</svg>
