<svg xmlns="http://www.w3.org/2000/svg" viewBox="0 0 410.9 100.24"><g data-name="Laag 2"><g data-name="Laag 1"><path d="M20.44 83.72H12c2.8 4.06 6 9.38 6 14.28H0V0h19.88v13.72c0 16.66-4.2 23.24-7.7 28.7h8.4c3.08-7.14 9.1-16.52 23.52-16.52 17.08 0 28.84 15 28.84 37.1s-11.76 37.24-28.84 37.24c-14.84 0-20.16-9.52-23.66-16.52zM52.08 63c0-16.38-7.14-22.12-16.38-22.12C25.76 40.88 19 48.16 19 63s6.9 22.12 16.7 22.12c9.24 0 16.38-5.74 16.38-22.12zM83.16 62.86c0-22 15.12-37 35.42-37 23.52 0 35.84 18.48 33.88 41.86H103c.56 12.32 7.14 17.36 15.68 17.36 9 0 13.3-5.6 16.24-12.18l17.78 6.86c-3.92 9-12.74 20.44-34 20.44-21.54.04-35.54-14.38-35.54-37.34zm49.7-9.1c-.86-8.68-5.86-13.58-14.28-13.58-8 0-13.44 4.76-14.84 13.58zM167.58 0h19.88v98h-19.88zM202.16 62.86c0-22 15.12-37 35.42-37 23.52 0 35.84 18.48 33.88 41.86H222c.56 12.32 7.14 17.36 15.68 17.36 9 0 13.3-5.6 16.24-12.18l17.78 6.86c-3.92 9-12.74 20.44-34 20.44-21.54.04-35.54-14.38-35.54-37.34zm49.7-9.1c-.86-8.68-5.86-13.58-14.28-13.58-8 0-13.44 4.76-14.84 13.58zM282 62.86c0-22 15.12-37 35.42-37 23.52 0 35.84 18.48 33.88 41.86h-49.46c.56 12.32 7.14 17.36 15.68 17.36 9 0 13.3-5.6 16.24-12.18l17.78 6.86c-3.92 9-12.74 20.44-34 20.44C296 100.24 282 85.82 282 62.86zm49.7-9.1c-.84-8.68-5.88-13.58-14.28-13.58-8 0-13.44 4.76-14.84 13.58zM371.84 43.12h-13.58V28h13.58v-9.66C371.84 7.42 378 0 389.34 0h21.56v15.82h-13c-4.34 0-6.16 2-6.16 6.16v6H408v15.14h-16.28V98h-19.88z"/></g></g></svg>