<svg xmlns="http://www.w3.org/2000/svg" viewBox="0 0 189 32"><path d="M12.059 24.593H8.641V7.596h3.418v16.997zM30.386 7.596v16.902h-2.849L20.89 14.053v10.445h-3.229V7.596h2.849l6.647 10.635V7.596h3.229zm16.807 6.742h5.887V7.596h3.418v16.902H53.08v-7.312h-5.887v7.312h-3.418V7.596h3.418v6.742zm25.163-6.742v2.944h-7.122v3.798h6.362v2.944h-6.362v4.463h7.122v2.944h-10.54V7.597h10.54zm15.668 0v2.944h-4.653v14.053h-3.418V10.54H75.3V7.596h12.724zM96 0H.095v32h188.961V0H96zm-1.899 30.101H1.994V1.899h92.107v28.202zm21.46-12.819c0 5.223-2.374 7.501-6.267 7.501-3.798 0-6.457-2.279-6.457-7.501v-2.184c0-5.507 2.659-7.691 6.457-7.691 3.608 0 5.697 1.994 6.172 5.507h-3.323c-.285-1.519-1.234-2.564-2.944-2.564-1.994 0-3.039 1.329-3.039 4.558v2.374c0 3.229 1.044 4.558 3.039 4.558 1.899 0 2.754-1.234 2.944-3.229h-2.849v-2.944h6.172l.095 1.614zm15.383-6.742h-7.122v3.798h6.362v2.944h-6.362v4.463h7.122v2.944h-10.54V7.597h10.54v2.944zm16.997 14.053h-2.849l-6.647-10.445v10.445h-3.228V7.596h2.849l6.647 10.635V7.596h3.228v16.997zm16.617-14.053h-4.653v14.053h-3.418V10.54h-4.653V7.596h12.724v2.944zm9.59 14.243c-2.944 0-5.033-.855-6.552-2.754l2.659-1.804c.95 1.139 1.899 1.709 3.703 1.709 1.994 0 2.659-.855 2.659-1.899 0-1.139-.76-1.804-3.418-2.564-3.323-.855-5.033-2.469-5.033-5.317 0-2.659 1.804-4.748 5.792-4.748 2.659 0 4.748.95 5.982 2.754l-2.564 1.804c-.76-1.139-1.614-1.709-3.323-1.709-1.519 0-2.374.76-2.374 1.899 0 1.329 1.044 1.899 3.323 2.469 3.513.855 5.128 2.184 5.128 5.223-.19 2.754-2.089 4.938-5.982 4.938z"/></svg>