<svg xmlns="http://www.w3.org/2000/svg" viewBox="0 0 231 32"><path d="M148.51 10.54h-2.089v5.128h2.089c2.374 0 3.418-.855 3.418-2.659 0-1.614-1.044-2.469-3.418-2.469zm16.807-.285c-1.994 0-3.039 1.329-3.039 4.558v2.374c0 3.229 1.044 4.558 3.039 4.558s3.039-1.329 3.039-4.558v-2.374c.095-3.229-1.044-4.558-3.039-4.558zM118.789 0H.095v32h230.742V0H118.79zm-1.899 30.101H1.994V1.899H116.89v28.202zm15.668-5.318c-2.944 0-5.033-.855-6.552-2.754l2.659-1.804c.95 1.139 1.899 1.709 3.703 1.709 1.994 0 2.659-.855 2.659-1.899 0-1.139-.76-1.804-3.418-2.564-3.323-.855-5.033-2.469-5.033-5.317 0-2.659 1.804-4.748 5.792-4.748 2.659 0 4.748.95 5.982 2.754l-2.564 1.804c-.76-1.139-1.614-1.709-3.323-1.709-1.519 0-2.374.76-2.374 1.899 0 1.329 1.044 1.899 3.323 2.469 3.513.855 5.128 2.184 5.128 5.223-.095 2.754-1.994 4.938-5.982 4.938zm16.427-6.172h-2.659v5.982h-3.418V7.596h6.077c3.893 0 6.362 1.804 6.362 5.412s-2.374 5.602-6.362 5.602zm22.884-1.329c0 5.223-2.659 7.501-6.552 7.501-3.798 0-6.457-2.279-6.457-7.501v-2.374c0-5.223 2.659-7.501 6.457-7.501s6.552 2.279 6.552 7.501v2.374zm14.529 7.311l-4.368-7.122-1.994 2.659v4.463h-3.418V7.596h3.418v7.312l5.317-7.312h4.083l-5.223 6.837 6.172 10.065-3.988.095zm18.516-14.053h-7.122v3.798h6.362v2.944h-6.362v4.463h7.122v2.944h-10.54V7.597h10.54v2.944zm17.092 14.053h-2.849l-6.647-10.445v10.445h-3.228V7.596h2.849l6.647 10.635V7.596h3.228v16.997zM20.985 17.187v-2.184c0-5.412-2.659-7.407-6.552-7.407H8.451v16.902h5.982c3.798.095 6.552-1.899 6.552-7.312zm-9.116-6.647h2.564c2.279 0 3.039 1.519 3.039 4.463v2.184c0 2.944-.76 4.463-3.039 4.463h-2.564V10.54zm14.054-2.944h3.418v16.902h-3.418V7.596zm11.964 13.769h5.697l1.044 3.229h3.703L42.349 7.597h-3.323l-5.887 16.902h3.703l1.044-3.134zm2.849-8.926l1.899 5.982h-3.798l1.899-5.982zm21.555 9.211h-7.122V7.597h-3.418v16.997h10.54V21.65zm14.338 0h-7.122v-4.463h6.362v-2.849h-6.362V10.54h7.122V7.596h-10.54v16.997h10.54v-2.944zm10.35 3.133c3.513 0 5.602-1.709 6.172-5.507h-3.228c-.38 1.709-1.234 2.564-2.944 2.564-1.994 0-3.039-1.424-3.039-4.558v-2.374c0-3.229 1.044-4.558 3.039-4.558 1.709 0 2.564.95 2.944 2.564h3.323c-.57-3.703-2.849-5.507-6.172-5.507-3.798 0-6.457 2.279-6.457 7.501v2.374c-.19 5.223 2.469 7.501 6.362 7.501zm13.389-.19h3.418V10.54h4.653V7.596H95.715v2.944h4.653v14.053z"/></svg>