<svg xmlns="http://www.w3.org/2000/svg" version="1.1" id="Laag_1" x="0" y="0" viewBox="0 0 497.19 187.912" xml:space="preserve"><style>.st0,.st1{fill:#fff}.st1{stroke:#fff;stroke-width:.2567;stroke-linecap:round;stroke-linejoin:round;stroke-miterlimit:10}.st2{fill:#e20613}</style><path class="st0" d="M219.71 175.332l-7.24 4.66v-3.04l8.54-4.48h1.77v15.09h-3.06v-12.23h-.01zM237.4 175.032h-12.72v-2.57h16.97v1.28l-10.29 13.82h-3.97l10.01-12.53zM253.87 181.032v1.4h-5.33v-1.4h5.33zM259.61 185.772c.19-5.76 12.87-5.69 12.87-8.71 0-1.68-1.49-2.33-5.33-2.33-3 0-5.89.75-7.09 1.34v-2.7c1.6-.73 4.57-1.23 7.68-1.23 5.2 0 7.93 1.23 7.93 4.33 0 6.08-11.51 5.41-12.87 8.5h12.55v2.59h-15.74v-1.79zM277.25 179.752c0-4.85 3.6-7.61 9.47-7.61 2.65 0 4.48.45 6.1 1.25v2.85c-1.79-.99-3.71-1.51-6.34-1.51-3.86 0-6.17 1.83-6.17 5.2 2.16-1.81 4.96-2.29 6.79-2.29 4.76 0 6.88 2.2 6.88 5.13 0 3.04-2.87 5.05-7.89 5.05-5.28 0-8.84-2.57-8.84-8.07zm13.65 2.85c0-1.72-1.45-2.65-4.33-2.65-2.01 0-4.72.86-5.93 2.22.58 1.9 2.5 3.06 5.26 3.06 3.06 0 5-.95 5-2.63zM302.05 180.252h3.08c0 3.6 1.36 5.07 4.31 5.07 2.93 0 4.31-1.47 4.31-5.07v-5.22h-9.7v-2.57h12.76v7.78c0 5.61-2.95 7.65-7.37 7.65-4.43.01-7.39-2.03-7.39-7.64zM320.08 179.542v-7.07h3.06v7.72c0 3.45 1.53 5.09 4.85 5.09 3.3 0 4.85-1.64 4.85-5.09v-7.72h3.06v7.07c0 6.43-2.98 8.37-7.91 8.37-4.93-.01-7.91-1.95-7.91-8.37zM338.63 172.472h3.06v12.51h10.52v2.59h-13.58v-15.1zM353.53 172.472h3.06v15.09h-3.06v-15.09zM365.46 185.772c.19-5.76 12.87-5.69 12.87-8.71 0-1.68-1.49-2.33-5.33-2.33-3 0-5.89.75-7.09 1.34v-2.7c1.59-.73 4.57-1.23 7.68-1.23 5.2 0 7.93 1.23 7.93 4.33 0 6.08-11.52 5.41-12.87 8.5h12.55v2.59h-15.74v-1.79zM382.67 180.012c0-4.74 3.64-7.89 9.53-7.89 5.91 0 9.55 3.15 9.55 7.89s-3.64 7.89-9.55 7.89c-5.89 0-9.53-3.14-9.53-7.89zm16.02 0c0-3.34-2.54-5.33-6.49-5.33-3.92 0-6.47 1.98-6.47 5.33s2.54 5.3 6.47 5.3c3.94.01 6.49-1.96 6.49-5.3zM402.44 185.772c.19-5.76 12.87-5.69 12.87-8.71 0-1.68-1.49-2.33-5.33-2.33-3 0-5.89.75-7.09 1.34v-2.7c1.6-.73 4.57-1.23 7.68-1.23 5.2 0 7.93 1.23 7.93 4.33 0 6.08-11.51 5.41-12.87 8.5h12.55v2.59h-15.74v-1.79zM419.65 180.012c0-4.74 3.64-7.89 9.53-7.89 5.91 0 9.55 3.15 9.55 7.89s-3.64 7.89-9.55 7.89c-5.88 0-9.53-3.14-9.53-7.89zm16.02 0c0-3.34-2.54-5.33-6.49-5.33-3.92 0-6.47 1.98-6.47 5.33s2.54 5.3 6.47 5.3c3.95.01 6.49-1.96 6.49-5.3z"/><g><path class="st1" d="M74.98 2.562c17.97 0 30.02 8.06 30.54 20.11H94.95c-.59-7.1-7.91-11.31-19.82-11.31-12.5 0-20.85 7.02-20.85 18.26s8.28 18.19 20.71 18.19c11.24 0 19.82-4.59 21.08-12.28H67.23v-7.69h39.12v27.66h-8.58l.74-11.98h-.67c-4.73 9.69-13.68 13.16-23.07 13.16-18.63 0-30.98-10.8-30.98-27.06-.02-16.27 12.41-27.06 31.19-27.06zM117.27 3.742h49.91v8.8h-39.41v11.31h35.05v8.13h-35.05v14.64h39.41v8.87h-49.91V3.742zM178.05 3.742h9.54l38.75 37.27V3.742h10.5v51.76h-9.61l-38.67-37.27v37.27h-10.5V3.742h-.01zM266.63 12.542h-22.92v-8.8h56.42v8.8h-23v42.96h-10.5v-42.96zM302.79 38.862h10.94c-.07 5.4 6.51 8.95 17.3 8.95 12.2 0 18.93-2.22 18.93-7.1 0-13.98-45.77 2.22-45.77-21.81 0-10.57 11.17-16.34 27.21-16.34 16.86 0 27.95 7.1 28.03 17.82h-10.72c0-5.47-6.51-9.02-17.01-9.02-10.72 0-16.86 2.22-16.86 6.66 0 13.01 45.7-2.07 45.7 22.26 0 10.8-11.46 16.42-29.06 16.42-17.67-.01-28.84-7.26-28.69-17.84zM369.7 3.742h49.91v8.8H380.2v11.31h35.05v8.13H380.2v14.64h39.41v8.87H369.7V3.742zM25.95 72.542h47.47v8.8H36.45v11.68H69.8v8.13H36.45v23.15h-10.5v-51.76zM82 72.542h49.91v8.8H92.5v11.31h35.05v8.13H92.5v14.64h39.41v8.87H82v-51.75zM142.04 72.542h49.91v8.8h-39.41v11.31h35.05v8.13h-35.05v14.64h39.41v8.87h-49.91v-51.75zM199.2 107.672h10.94c-.07 5.4 6.51 8.95 17.3 8.95 12.2 0 18.93-2.22 18.93-7.1 0-13.98-45.77 2.22-45.77-21.81 0-10.57 11.17-16.34 27.21-16.34 16.86 0 27.95 7.1 28.03 17.82h-10.72c0-5.47-6.51-9.02-17.01-9.02-10.72 0-16.86 2.22-16.86 6.66 0 13.01 45.7-2.07 45.7 22.26 0 10.8-11.46 16.42-29.06 16.42-17.68-.02-28.84-7.27-28.69-17.84zM280.76 81.342h-22.92v-8.8h56.42v8.8h-23v42.96h-10.5v-42.96zM320.31 72.542h49.91v8.8h-39.41v11.31h35.05v8.13h-35.05v14.64h39.41v8.87h-49.91v-51.75zM380.35 72.542h9.54l38.75 37.27v-37.27h10.5v51.76h-9.61l-38.68-37.26v37.27h-10.5v-51.77z"/></g><g><path class="st2" d="M151.44 151.992c0-3.16 1.68-5.3 4.34-5.3 1.68 0 2.78.94 3.24 1.64v-5.34h2.84v14h-2.76v-1.34c-.46.68-1.6 1.66-3.32 1.66-2.66 0-4.34-2.16-4.34-5.32zm7.71 0c0-2.12-.96-3.16-2.36-3.16-1.32 0-2.36.82-2.36 3.16s1.04 3.16 2.36 3.16c1.39 0 2.36-1.04 2.36-3.16zM164.5 142.942h3.02v2.68h-3.02v-2.68zm.1 4.04h2.84v10h-2.84v-10zM169.3 158.832c0-.88.6-1.6 1.18-1.98-.58-.4-.94-.94-.94-1.84 0-1 .76-1.74 1.58-2.18-.66-.54-1.08-1.44-1.08-2.4 0-2.24 1.82-3.74 4.34-3.74 1.8 0 3.24.82 3.9 2.02.06-1.32.44-1.72 1.78-1.72h.76v2.16h-1.1c-.62 0-.78.14-.9 1.16l-.02.18c-.24 2.16-1.98 3.48-4.32 3.48-.74 0-1.48-.08-2.08-.34-.56.16-.76.38-.76.7 0 .42.42.44 1 .44h4.3c2.14 0 3.48 1.4 3.48 3.02 0 2.02-1.52 3.1-3.48 3.1h-4.64c-2.12 0-3-.78-3-2.06zm7.08 0c.94 0 1.24-.38 1.24-.94 0-.46-.3-.9-1.24-.9H172c-.24.14-.52.5-.52.9 0 .64.46.94 1 .94h3.9zm-.16-8.42c0-1.04-.7-1.8-1.76-1.8s-1.76.76-1.76 1.8c0 1.02.7 1.7 1.76 1.7s1.76-.68 1.76-1.7zM182.34 142.942h3.02v2.68h-3.02v-2.68zm.1 4.04h2.84v10h-2.84v-10zM189.02 154.372v-5.22h-2.1v-2.16h2.1v-3.14h2.84v3.14h2.6v2.16h-2.6v4.7c0 .6.26.88.88.88h2.16v2.26h-3.34c-1.62 0-2.54-1.06-2.54-2.62zM196.14 154.432c0-2.8 2.96-3.62 6.28-3.94v-.38c0-.86-.5-1.38-1.64-1.38-1.3 0-1.96.64-2.2 1.58l-2.56-.56c.16-1.56 1.82-3.06 4.74-3.06 2.8 0 4.46 1.24 4.46 3.88v3.66c0 .5.06.6.6.6h.88v2.16h-2.18c-1.12 0-1.7-.56-1.8-1.46-.54.84-1.66 1.78-3.42 1.78-1.8 0-3.16-1.12-3.16-2.88zm6.28-1.54v-.64c-1.84.22-3.4.58-3.4 1.9 0 .66.44 1.08 1.3 1.08 1.1 0 2.1-.72 2.1-2.34zM207.62 154.432c0-2.8 2.96-3.62 6.28-3.94v-.38c0-.86-.5-1.38-1.64-1.38-1.3 0-1.96.64-2.2 1.58l-2.56-.56c.16-1.56 1.82-3.06 4.74-3.06 2.8 0 4.46 1.24 4.46 3.88v3.66c0 .5.06.6.6.6h.88v2.16H216c-1.12 0-1.7-.56-1.8-1.46-.54.84-1.66 1.78-3.42 1.78-1.8 0-3.16-1.12-3.16-2.88zm6.28-1.54v-.64c-1.84.22-3.4.58-3.4 1.9 0 .66.44 1.08 1.3 1.08 1.1 0 2.1-.72 2.1-2.34zM219.68 142.982h2.84v14h-2.84v-14zM229.32 151.972c0-3.14 2.16-5.28 5.06-5.28 3.36 0 5.12 2.64 4.84 5.98h-7.06c.08 1.76 1.02 2.48 2.24 2.48 1.28 0 1.9-.8 2.32-1.74l2.54.98c-.56 1.28-1.82 2.92-4.86 2.92-3.08 0-5.08-2.06-5.08-5.34zm7.1-1.31c-.12-1.24-.84-1.94-2.04-1.94-1.14 0-1.92.68-2.12 1.94h4.16zM241.38 146.982h2.76v1.54c.42-.68 1.38-1.84 3.22-1.84 2.32 0 3.3 1.42 3.3 3.6v6.7h-2.84v-6.08c0-1.32-.62-1.88-1.6-1.88-1.98 0-2 2.16-2 3.22v4.74h-2.84v-10zM257.34 151.972c0-3.22 2.36-5.28 5.38-5.28 2.4 0 4.1 1.3 4.76 3l-2.62.98c-.4-1.14-1.2-1.74-2.24-1.74-1.34 0-2.42.98-2.42 3.04s1.12 3.08 2.44 3.08c1.16 0 1.88-.62 2.32-1.9l2.68.96c-.76 1.92-2.58 3.2-4.94 3.2-3.08 0-5.36-2.12-5.36-5.34zM269.42 146.982h2.78v2.28c.34-.82 1.22-2.48 3.64-2.48.16 0 .3 0 .46.02v2.92c-.4-.04-.76-.06-1.1-.06-2.04 0-2.94.8-2.94 3.3v4.02h-2.84v-10zM277.16 151.972c0-3.14 2.16-5.28 5.06-5.28 3.36 0 5.12 2.64 4.84 5.98H280c.08 1.76 1.02 2.48 2.24 2.48 1.28 0 1.9-.8 2.32-1.74l2.54.98c-.56 1.28-1.82 2.92-4.86 2.92-3.08 0-5.08-2.06-5.08-5.34zm7.1-1.31c-.12-1.24-.84-1.94-2.04-1.94-1.14 0-1.92.68-2.12 1.94h4.16zM288.64 154.432c0-2.8 2.96-3.62 6.28-3.94v-.38c0-.86-.5-1.38-1.64-1.38-1.3 0-1.96.64-2.2 1.58l-2.56-.56c.16-1.56 1.82-3.06 4.74-3.06 2.8 0 4.46 1.24 4.46 3.88v3.66c0 .5.06.6.6.6h.88v2.16h-2.18c-1.12 0-1.7-.56-1.8-1.46-.54.84-1.66 1.78-3.42 1.78-1.8 0-3.16-1.12-3.16-2.88zm6.28-1.54v-.64c-1.84.22-3.4.58-3.4 1.9 0 .66.44 1.08 1.3 1.08 1.1 0 2.1-.72 2.1-2.34zM301.56 154.372v-5.22h-2.1v-2.16h2.1v-3.14h2.84v3.14h2.6v2.16h-2.6v4.7c0 .6.26.88.88.88h2.16v2.26h-3.34c-1.62 0-2.54-1.06-2.54-2.62zM309.14 142.942h3.02v2.68h-3.02v-2.68zm.1 4.04h2.84v10h-2.84v-10zM314.14 151.972c0-3.14 2.16-5.28 5.06-5.28 3.36 0 5.12 2.64 4.84 5.98h-7.06c.08 1.76 1.02 2.48 2.24 2.48 1.28 0 1.9-.8 2.32-1.74l2.54.98c-.56 1.28-1.82 2.92-4.86 2.92-3.08 0-5.08-2.06-5.08-5.34zm7.1-1.31c-.12-1.24-.84-1.94-2.04-1.94-1.14 0-1.92.68-2.12 1.94h4.16zM326.98 149.142h-1.94v-2.16h1.94v-1.38c0-1.56.88-2.62 2.5-2.62h3.08v2.26h-1.86c-.62 0-.88.28-.88.88v.86h2.32v2.16h-2.32v7.84h-2.84v-7.84zM337.62 154.432c0-2.8 2.96-3.62 6.28-3.94v-.38c0-.86-.5-1.38-1.64-1.38-1.3 0-1.96.64-2.2 1.58l-2.56-.56c.16-1.56 1.82-3.06 4.74-3.06 2.8 0 4.46 1.24 4.46 3.88v3.66c0 .5.06.6.6.6h.88v2.16H346c-1.12 0-1.7-.56-1.8-1.46-.54.84-1.66 1.78-3.42 1.78-1.8 0-3.16-1.12-3.16-2.88zm6.28-1.54v-.64c-1.84.22-3.4.58-3.4 1.9 0 .66.44 1.08 1.3 1.08 1.1 0 2.1-.72 2.1-2.34zM349.68 142.982h2.84v14h-2.84v-14zM356.3 154.372v-5.22h-2.1v-2.16h2.1v-3.14h2.84v3.14h2.6v2.16h-2.6v4.7c0 .6.26.88.88.88h2.16v2.26h-3.34c-1.62 0-2.54-1.06-2.54-2.62zM363.2 151.972c0-3.14 2.16-5.28 5.06-5.28 3.36 0 5.12 2.64 4.84 5.98h-7.06c.08 1.76 1.02 2.48 2.24 2.48 1.28 0 1.9-.8 2.32-1.74l2.54.98c-.56 1.28-1.82 2.92-4.86 2.92-3.08 0-5.08-2.06-5.08-5.34zm7.1-1.31c-.12-1.24-.84-1.94-2.04-1.94-1.14 0-1.92.68-2.12 1.94h4.16zM375.26 146.982h2.78v2.28c.34-.82 1.22-2.48 3.64-2.48.16 0 .3 0 .46.02v2.92c-.4-.04-.76-.06-1.1-.06-2.04 0-2.94.8-2.94 3.3v4.02h-2.84v-10zM383.86 146.982h2.76v1.54c.42-.68 1.38-1.84 3.22-1.84 2.32 0 3.3 1.42 3.3 3.6v6.7h-2.84v-6.08c0-1.32-.62-1.88-1.6-1.88-1.98 0-2 2.16-2 3.22v4.74h-2.84v-10zM395.22 154.432c0-2.8 2.96-3.62 6.28-3.94v-.38c0-.86-.5-1.38-1.64-1.38-1.3 0-1.96.64-2.2 1.58l-2.56-.56c.16-1.56 1.82-3.06 4.74-3.06 2.8 0 4.46 1.24 4.46 3.88v3.66c0 .5.06.6.6.6h.88v2.16h-2.18c-1.12 0-1.7-.56-1.8-1.46-.54.84-1.66 1.78-3.42 1.78-1.8 0-3.16-1.12-3.16-2.88zm6.28-1.54v-.64c-1.84.22-3.4.58-3.4 1.9 0 .66.44 1.08 1.3 1.08 1.1 0 2.1-.72 2.1-2.34zM408.14 154.372v-5.22h-2.1v-2.16h2.1v-3.14h2.84v3.14h2.6v2.16h-2.6v4.7c0 .6.26.88.88.88h2.16v2.26h-3.34c-1.62 0-2.54-1.06-2.54-2.62zM415.72 142.942h3.02v2.68h-3.02v-2.68zm.1 4.04h2.84v10h-2.84v-10zM420.72 151.972c0-3.14 2.16-5.28 5.06-5.28 3.36 0 5.12 2.64 4.84 5.98h-7.06c.08 1.76 1.02 2.48 2.24 2.48 1.28 0 1.9-.8 2.32-1.74l2.54.98c-.56 1.28-1.82 2.92-4.86 2.92-3.08 0-5.08-2.06-5.08-5.34zm7.1-1.31c-.12-1.24-.84-1.94-2.04-1.94-1.14 0-1.92.68-2.12 1.94h4.16zM433.56 149.142h-1.94v-2.16h1.94v-1.38c0-1.56.88-2.62 2.5-2.62h3.08v2.26h-1.86c-.62 0-.88.28-.88.88v.86h2.32v2.16h-2.32v7.84h-2.84v-7.84z"/></g><path class="st0" d="M.07 41.302c2.13-.61 4.26-1.24 6.39-1.83 10.96-3.03 22.01-5.72 33.09-8.25 8.13-1.85 16.26-3.69 24.42-5.42 7.51-1.59 15.04-3.08 22.57-4.52 6.94-1.32 13.89-2.58 20.85-3.77 6.43-1.1 12.88-2.11 19.33-3.12 5.39-.84 10.79-1.63 16.19-2.39 5.1-.72 10.2-1.38 15.31-2.04 4.35-.56 8.69-1.11 13.05-1.63 3.72-.45 7.44-.85 11.16-1.26 3.67-.41 7.34-.82 11.02-1.2 3.98-.41 7.96-.78 11.94-1.15 3.75-.35 7.51-.69 11.26-1 3.1-.26 6.2-.47 9.3-.69 2.92-.21 5.84-.42 8.77-.61 3.33-.22 6.66-.42 9.99-.61 2.87-.17 5.75-.31 8.62-.46 2.26-.11 4.53-.21 6.8-.31 2.6-.11 5.19-.22 7.79-.3 3.31-.11 6.63-.21 9.94-.31 2.09-.06 4.18-.11 6.27-.15 2.78-.06 5.56-.13 8.34-.15 9.73-.06 19.46-.09 29.19-.13 1.89-.01 3.78.02 5.67.04 3.14.04 6.28.09 9.41.15 2.07.04 4.13.09 6.2.15 2.96.09 5.91.18 8.87.31 2.52.11 5.04.26 7.56.38 1.65.08 3.31.13 4.96.23 1.91.11 3.81.26 5.72.38 1.27.08 2.54.15 3.81.23 2.08.13 4.17.27 6.25.42 2.13.15 4.27.3 6.4.5 3.04.28 6.08.6 9.12.92.7.07.86.37.59.96-.13.29-.32.33-.61.3-1.6-.15-3.19-.29-4.79-.43-1.75-.15-3.5-.31-5.25-.45-2.89-.24-5.78-.47-8.68-.69-2.03-.15-4.07-.26-6.1-.39-1.98-.13-3.96-.27-5.95-.38-1.65-.09-3.31-.16-4.96-.23l-6.95-.3c-.84-.04-1.68-.07-2.52-.09-2.24-.06-4.49-.11-6.73-.15-3.47-.07-6.94-.18-10.41-.21-8.35-.07-16.7-.11-25.05-.15-1.86-.01-3.73.03-5.59.06-2.37.04-4.74.09-7.12.15-3.39.09-6.78.19-10.17.31-2.55.09-5.09.19-7.64.31-2.42.11-4.83.26-7.25.38-1.65.08-3.31.14-4.96.23-1.4.07-2.8.16-4.2.25-1.93.12-3.86.23-5.79.36-1.93.13-3.86.27-5.79.41-2.34.17-4.67.33-7.01.51-2.28.18-4.57.37-6.85.56-3.15.27-6.29.53-9.43.82-3.45.32-6.89.66-10.34 1.03-5.65.61-11.29 1.21-16.93 1.88-4.53.53-9.05 1.13-13.57 1.75-5.6.76-11.21 1.54-16.8 2.38-4.61.69-9.22 1.43-13.81 2.21-5.63.96-11.25 1.96-16.86 2.98-3.14.57-6.26 1.2-9.39 1.8-.12.02-.23.06-.33.19.58-.06 1.16-.1 1.73-.17 3.67-.4 7.34-.81 11.01-1.19 2.99-.31 5.98-.58 8.97-.85 3.7-.34 7.4-.68 11.11-.99 3.05-.25 6.09-.49 9.14-.69 3.48-.23 6.95-.64 10.41-1.08 3.21-.4 6.42-.78 9.64-1.16 3.06-.36 6.12-.71 9.19-1.04 2.76-.3 5.52-.57 8.29-.83 4.18-.4 8.36-.81 12.55-1.17 3.55-.31 7.11-.57 10.66-.84 2.69-.21 5.38-.41 8.07-.61 3.12-.23 6.25-.47 9.37-.69 2.08-.14 4.17-.25 6.25-.38 1.83-.12 3.66-.27 5.49-.38 2.26-.14 4.53-.25 6.79-.38 1.98-.12 3.96-.26 5.95-.38 1.53-.09 3.05-.15 4.58-.23 1.75-.09 3.51-.19 5.26-.29 1.14-.06 2.29-.11 3.44-.17l5.95-.3c1.37-.06 2.75-.1 4.13-.16 2.16-.09 4.33-.2 6.49-.29 1.48-.06 2.95-.11 4.43-.16l8.64-.3c.94-.03 1.89-.07 2.83-.09 1.53-.03 3.06-.04 4.59-.07l7.65-.15c1.53-.03 3.06-.07 4.59-.08 2.53-.03 5.05-.06 7.58-.07 7.3-.03 14.61-.07 21.91-.08 2.48 0 4.95.05 7.43.08 1.99.02 3.98.04 5.97.07l9.11.15c2.3.04 4.59.1 6.89.15 1.78.04 3.57.09 5.35.15 2.65.09 5.3.17 7.95.31 3.13.17 6.26.35 9.38.61 3.07.25 6.14.55 9.19.93 1.56.19 3.1.61 4.64.93.09.02.17.1.25.15-.09.3-.28.27-.49.2-1.72-.52-3.49-.74-5.26-.91-2.23-.22-4.47-.43-6.7-.6-2.06-.16-4.12-.29-6.18-.39-2.09-.1-4.18-.15-6.27-.23-2.27-.08-4.53-.18-6.8-.23-2.04-.05-4.08-.05-6.13-.07-4.29-.05-8.58-.12-12.87-.15-9.81-.06-19.61-.11-29.42-.15-2.66-.01-5.31.03-7.97.06-3.45.04-6.89.09-10.34.16-2.17.04-4.34.09-6.51.15-2.93.09-5.86.2-8.79.3-1.86.06-3.72.09-5.58.16-1.71.06-3.41.15-5.12.23-.74.03-1.48.04-2.22.08l-6.57.3c-1.35.06-2.7.1-4.05.16-1.73.08-3.46.18-5.19.27l-3.51.18c-1.65.09-3.31.17-4.96.26-2.06.11-4.12.23-6.18.35-1.42.08-2.85.18-4.27.26-1.91.12-3.81.23-5.72.35-2.08.13-4.17.28-6.25.42-1.75.12-3.51.22-5.26.35-1.96.14-3.91.29-5.87.43-2.31.17-4.62.32-6.93.49-2.36.18-4.72.36-7.08.55-2.72.22-5.43.43-8.14.67-2.61.23-5.22.47-7.83.73-3.78.36-7.55.73-11.33 1.11-.55.05-1.09.17-1.64.28 1.69-.09 3.37-.19 5.06-.27 1.3-.06 2.6-.11 3.9-.16l6.87-.3c.71-.03 1.43-.05 2.14-.07 1.81-.05 3.62-.09 5.43-.16 2.24-.08 4.48-.19 6.72-.29 2.11-.1 4.22-.2 6.34-.32 2.31-.12 4.63-.26 6.94-.38 1.27-.07 2.55-.11 3.82-.16l7.03-.3c.74-.03 1.48-.05 2.22-.07 1.94-.05 3.87-.1 5.81-.16l8.87-.24c2.24-.06 4.49-.11 6.73-.15 1.86-.03 3.73-.05 5.59-.07 2.5-.03 5-.06 7.5-.08 3.5-.03 7-.06 10.5-.06 3.78 0 7.56.03 11.34.07 3.27.03 6.53.09 9.8.15 2.32.04 4.64.1 6.96.15 1.91.05 3.82.09 5.74.15 3.08.1 6.17.2 9.25.31 2.6.09 5.2.2 7.79.31 2.24.09 4.48.19 6.72.31 2.7.14 5.39.31 8.09.45 2.06.11 4.12.19 6.18.32 2.97.18 5.95.4 8.92.6 2.36.16 4.73.3 7.09.47 2.39.17 4.77.37 7.16.56 2.66.22 5.33.43 7.99.66 2.61.23 5.22.49 7.83.74 3.8.36 7.61.71 11.4 1.1 4.41.46 8.81.95 13.21 1.45 4.61.52 9.21 1.05 13.81 1.6 1.37.16 2.73.37 4.08.61 1.54.28 1.57.58 1.04 1.96.22.05.43.11.64.14 6.01.96 12.04 1.85 18.04 2.89 6.13 1.06 12.23 2.26 18.34 3.4.17.03.33.1.49.15v.15c-1.13-.17-2.27-.32-3.4-.5-7.75-1.27-15.48-2.6-23.24-3.79-5.71-.87-11.46-1.57-17.19-2.3-3.89-.49-7.79-.92-11.69-1.33-2.99-.32-5.98-.57-8.97-.85-3.14-.29-6.29-.58-9.43-.84-2.33-.2-4.67-.36-7.01-.54-3.07-.23-6.14-.47-9.22-.69-2.13-.15-4.27-.26-6.41-.38-.73-.04-1.47-.1-2.22-.01.42.05.83.11 1.25.16 4.43.53 8.86 1.02 13.27 1.61 3.26.43 6.5 1 9.74 1.51.08.01.15.02.23.04.93.23 1.13.85.52 1.61-.2.25-.45.19-.7.16l-3.79-.45c-3.51-.42-7.03-.86-10.55-1.24-4.2-.45-8.41-.84-12.62-1.24-3.17-.3-6.34-.58-9.51-.84-2.41-.2-4.83-.36-7.24-.54-2.34-.17-4.67-.37-7.01-.53-2.08-.14-4.17-.25-6.25-.38-1.93-.12-3.86-.26-5.79-.38-1.53-.09-3.05-.15-4.58-.23-1.73-.09-3.46-.19-5.19-.28-1.27-.07-2.55-.12-3.82-.18-2.01-.1-4.02-.2-6.03-.29-1.45-.06-2.9-.07-4.34-.12-1.09-.03-2.18-.09-3.28-.13-.28-.01-.56 0-.84.05 1.71.08 3.43.16 5.14.25l5.34.27c1.17.06 2.34.12 3.51.19 1.42.08 2.85.16 4.27.25 1.86.12 3.71.23 5.56.36 1.85.13 3.71.27 5.56.41 2.21.17 4.42.33 6.62.51 2.11.17 4.21.36 6.31.56 3.88.37 7.76.72 11.63 1.13 3.77.4 7.54.84 11.31 1.3 5.06.62 10.11 1.23 15.16 1.91 6.09.81 12.18 1.61 18.21 2.75.8.15 1.59.36 2.37.6.9.28 1.03.46.97 1.03-.1.92-.5 1.42-1.32 1.47-.74.05-1.48.04-2.22.01-2.01-.08-4.02-.18-6.03-.29-2.21-.12-4.43-.26-6.64-.38-1.63-.09-3.26-.15-4.89-.23-1.78-.09-3.56-.19-5.34-.28l-3.74-.18c-2.06-.1-4.12-.2-6.19-.29-1.43-.06-2.85-.11-4.28-.17-2.39-.1-4.79-.2-7.18-.29-1.66-.06-3.31-.12-4.97-.17l-9.87-.3c-1.25-.04-2.5-.07-3.75-.09l-7.96-.15c-.25 0-.51 0-.77.1l4.89.66c3.13.42 6.26.83 9.39 1.28 4.09.58 8.17 1.17 12.25 1.78 4.46.67 8.92 1.34 13.37 2.07 5.28.86 10.56 1.74 15.83 2.67 5.09.9 10.18 1.85 15.26 2.81 6.36 1.19 12.72 2.44 19.08 3.6 6.37 1.16 12.75 2.24 19.12 3.38.89.16 1.76.47 2.64.71.35.09.47.35.38.64-.2.65-.43 1.29-.7 1.91-.13.3-.46.29-.74.25-.73-.11-1.47-.2-2.19-.37-6.38-1.52-12.86-2.51-19.29-3.77-6.18-1.21-12.36-2.42-18.55-3.6-5.86-1.12-11.72-2.22-17.6-3.28-5.24-.94-10.49-1.86-15.75-2.71-6.39-1.03-12.8-1.99-19.2-2.95-4.51-.68-9.03-1.32-13.55-1.94-4.06-.56-8.14-1.07-12.21-1.58-3.67-.46-7.34-.9-11.01-1.34-2.13-.25-4.25-.47-6.38-.7-.25-.03-.51-.01-.77-.01-5.75 0-11.49-.01-17.24 0-3.27.01-6.54.03-9.81.07-3.52.04-7.05.09-10.57.15-2.6.04-5.21.1-7.81.15-2.12.05-4.24.09-6.35.15-3.57.1-7.14.2-10.71.31-2.96.09-5.91.2-8.87.3-2.63.1-5.25.2-7.87.31-2.32.1-4.64.19-6.95.31-2.83.14-5.65.3-8.48.45-2.19.11-4.38.2-6.57.32-2.37.13-4.73.29-7.1.44-1.91.11-3.82.21-5.73.33-2.03.13-4.07.28-6.1.42-2.47.17-4.93.32-7.4.5-2.44.18-4.88.37-7.32.56-2.82.22-5.64.43-8.46.67-2.72.23-5.43.48-8.15.73-3.96.36-7.92.71-11.87 1.11-4.03.4-8.06.85-12.09 1.3-3.8.42-7.6.85-11.39 1.3-3.44.41-6.88.86-10.32 1.32-3.94.52-7.88 1.04-11.82 1.59-4.04.57-8.07 1.16-12.11 1.77-4.44.67-8.87 1.34-13.3 2.04-4.26.67-8.51 1.36-12.76 2.07-5.26.88-10.51 1.76-15.76 2.68-5.25.92-10.49 1.87-15.73 2.82-4.39.79-8.78 1.59-13.17 2.4-.34.06-.68.18-1.02.27h-.61c-.27-.33-.59-.63-.81-.99-.6-.95-.6-1.47.69-1.78 3.86-.94 7.7-1.98 11.58-2.86 6.83-1.55 13.68-3.08 20.54-4.49 6.77-1.39 13.56-2.67 20.35-3.92 6.49-1.2 13-2.33 19.51-3.42 5.63-.95 11.27-1.84 16.91-2.68 5.24-.79 10.49-1.5 15.74-2.21 4.57-.62 9.14-1.21 13.72-1.76 5.94-.71 11.89-1.38 17.84-2.05 2.83-.32 5.67-.59 8.51-.9.73-.08 1.45-.22 2.17-.33h1.26c0-.03 0-.07-.01-.1-.41.04-.83.07-1.24.11-.66.05-1.32.11-1.98.17-2.69.24-5.38.47-8.06.74-3.27.32-6.54.65-9.8 1-3.47.38-6.93.78-10.4 1.19-4.33.51-8.65 1.02-12.97 1.57-4.45.57-8.89 1.18-13.33 1.79-4.42.61-8.83 1.23-13.24 1.9-4.74.71-9.47 1.45-14.2 2.23-5.81.96-11.61 1.94-17.41 2.98-5.87 1.05-11.73 2.18-17.59 3.28-7.69 1.44-15.38 2.91-23.07 4.34-2.96.55-5.94.97-8.89 1.52-1.41.26-2.02-.72-2.39-1.72-.14-.39 0-.77.37-1 .52-.32 1.03-.66 1.59-.9 1.31-.56 2.64-1.09 3.97-1.6 1.07-.41 2.16-.75 3.24-1.13-.2-.83-.14-.99.61-1.33.63-.29 1.26-.55 1.91-.79 5.16-1.91 10.41-3.56 15.68-5.17.21-.06.41-.13.62-.19-1.37.1-2.7.32-4.03.56-5.55.99-11.09 1.97-16.63 3-4.99.92-9.97 1.89-14.95 2.85-1.9.37-3.8.76-5.69 1.17-.49.11-.89-.02-1.15-.38-.27-.36-.46-.79-.62-1.22-.13-.33.02-.6.35-.74.19-.08.39-.13.58-.18 2.56-.69 5.12-1.39 7.68-2.06 6.84-1.77 13.7-3.42 20.62-4.84 6.04-1.24 12.09-2.45 18.16-3.58 4.81-.9 9.64-1.71 14.47-2.51 4.73-.78 9.46-1.52 14.2-2.23 3.75-.56 7.52-1.06 11.28-1.58 1.61-.22 3.25-.36 4.84-.68 5.65-1.14 11.27-2.38 16.92-3.51 5.45-1.09 10.91-2.12 16.37-3.12 4.66-.85 9.34-1.64 14.01-2.41 4.02-.66 8.05-1.28 12.08-1.89 4.08-.62 8.17-1.21 12.25-1.78 3.61-.5 7.22-.96 10.83-1.43 1.36-.18 2.72-.35 4.07-.53-.26-.07-.51-.1-.76-.07-1.49.15-2.99.3-4.48.47-4.86.55-9.72 1.09-14.58 1.66-5.13.6-10.27 1.21-15.4 1.87-6.24.81-12.47 1.65-18.7 2.54-6.31.9-12.61 1.83-18.9 2.81-5.74.9-11.47 1.85-17.19 2.86-7.68 1.35-15.36 2.72-23.02 4.19-7.76 1.49-15.51 3.04-23.23 4.72-11.65 2.54-23.28 5.21-34.91 7.84-8.01 1.81-16.01 3.64-24 5.48-.59.14-1.03.1-1.41-.37.07-.17.07-.28.07-.38zm108.45-2.52c.31-.05.62-.09.93-.14 1.13-.18 2.25-.38 3.38-.54 4.56-.64 9.13-1.29 13.7-1.91 4.06-.55 8.13-1.1 12.2-1.6 4.57-.56 9.15-1.08 13.73-1.61 3.52-.4 7.03-.79 10.55-1.15 3.88-.39 7.75-.75 11.63-1.12 2.66-.25 5.32-.49 7.99-.72 2.71-.23 5.43-.44 8.15-.66 1.75-.14 3.5-.29 5.25-.42 2.39-.18 4.77-.34 7.16-.51 1.96-.14 3.91-.28 5.87-.41 1.85-.12 3.71-.23 5.57-.35 1.37-.09 2.74-.18 4.12-.26 2.03-.12 4.07-.24 6.1-.35 1.65-.09 3.31-.17 4.96-.26 1.14-.06 2.29-.13 3.43-.19 1.73-.09 3.46-.18 5.19-.26 1.35-.06 2.7-.11 4.05-.16 2.19-.1 4.38-.2 6.57-.29.74-.03 1.48-.04 2.22-.08 1.7-.07 3.41-.16 5.11-.23 1.71-.06 3.41-.1 5.12-.16 2.57-.09 5.14-.2 7.71-.3 1.66-.06 3.31-.11 4.97-.15 1.96-.05 3.93-.11 5.89-.15 2.14-.05 4.28-.11 6.42-.15 2.68-.06 5.36-.11 8.03-.15 1.61-.03 3.22-.05 4.82-.07l10.26-.09c.43 0 .87 0 1.3-.01.12 0 .25-.02.37-.03-.85-.15-1.71-.23-2.56-.3-2.89-.24-5.79-.5-8.68-.72-2.34-.18-4.68-.33-7.02-.48-2.95-.2-5.9-.46-8.85-.57-2.6-.1-5.21-.05-7.81-.01-3.01.06-6.02.19-9.03.29-1.4.05-2.8.1-4.21.16-2.55.12-5.09.26-7.64.38-2.65.13-5.3.23-7.95.38-2.85.16-5.7.35-8.55.54-3.1.2-6.21.39-9.31.61a1258.345 1258.345 0 00-21.8 1.68c-4.04.35-8.07.7-12.1 1.08-4.62.44-9.23.9-13.84 1.37-3.14.32-6.28.65-9.42 1-3.39.38-6.78.79-10.17 1.19-3.54.42-7.08.85-10.62 1.3-3.29.42-6.57.85-9.85 1.3-4.14.57-8.28 1.15-12.41 1.76-3.78.56-7.56 1.16-11.33 1.75-2.79.44-5.58.91-8.37 1.38-.11.02-.21.16-.32.23-.3-.01-.65-.25-.91.16-.26-.02-.53-.03-.79-.05v.08l.79-.03zm-10.57-5.05c.31-.04.62-.09.94-.13.09-.03.18-.08.28-.09 4.66-.71 9.32-1.45 13.98-2.12 6.86-.97 13.73-1.92 20.6-2.81 6.14-.8 12.28-1.53 18.43-2.23 5.06-.57 10.13-1.05 15.2-1.56 2.58-.26 5.17-.51 7.76-.74 2.69-.24 5.38-.45 8.07-.66 1.88-.15 3.76-.28 5.64-.42l5.64-.39c1.85-.13 3.71-.25 5.56-.37 1.4-.09 2.8-.15 4.2-.23 2.11-.12 4.22-.26 6.33-.37 1.78-.09 3.56-.15 5.35-.23.67-.03 1.34-.09 2-.13-.23-.1-.45-.11-.68-.1l-3.59.09-5.66.15c-.87.02-1.73.04-2.6.07l-8.18.3c-1.4.05-2.8.1-4.2.16-1.96.09-3.92.2-5.88.3-1.83.09-3.67.12-5.5.26-2.82.21-5.64.48-8.45.76-4.54.44-9.08.9-13.61 1.38-3.83.41-7.65.83-11.47 1.3-4.3.52-8.6 1.04-12.89 1.65-5.57.79-11.14 1.64-16.7 2.51-4.45.7-8.9 1.48-13.34 2.23-1.98.34-3.96.7-5.95 1.05-.14.03-.41-.06-.33.26-.34-.06-.69-.31-.95.11-.26-.02-.52-.03-.78-.04v.1l.78-.06zm283.78-11.14c-45.29-4.45-90.69-5.17-136.15-3.84.21.05.43.08.65.08l8.88.09c.97.01 1.94.04 2.91.06l9.25.24c1.81.05 3.62.1 5.43.16.69.02 1.38.04 2.06.07 2.01.1 4.02.25 6.03.28 1.78.03 3.57-.1 5.35-.13 1.86-.04 3.73-.07 5.59-.07 9.09.04 18.18-.12 27.27.15 2.35.07 4.69.1 7.04.16 3.03.07 6.07.14 9.1.22.82.02 1.63.06 2.44.09l6.87.3c1.35.06 2.7.1 4.05.17 1.81.09 3.61.2 5.42.29 1.55.08 3.11.14 4.66.23 1.85.11 3.71.26 5.56.38 2.01.13 4.02.25 6.02.38 3.38.23 6.76.46 10.13.68.48.04.96.01 1.44.01zm-63.41-.14l-.02.02c2.55.25 5.11.49 7.66.74 2.53.25 5.07.51 7.6.76 1.29.13 2.58.31 3.88.36 2.06.08 4.13.07 6.2.1 3.7.05 7.4.1 11.1.16 2.42.04 4.84.1 7.27.15 2.27.05 4.54.11 6.81.15 1.5.03 3.01.04 4.51.07.94.02 1.88.06 2.83.09 1.99.07 3.97.14 5.96.2.18.01.35-.02.53-.04-.74-.13-1.47-.21-2.2-.26-2.23-.17-4.47-.34-6.71-.49-2.06-.15-4.12-.3-6.17-.42-1.53-.09-3.05-.16-4.58-.23l-6.42-.3c-1.5-.06-3.01-.11-4.51-.16-1.96-.07-3.92-.16-5.88-.23-1.81-.06-3.62-.1-5.43-.16-2.96-.1-5.91-.21-8.87-.29-1.56-.05-3.11-.04-4.67-.07-1.48-.03-2.96-.11-4.44-.14-1.5-.03-2.98-.01-4.45-.01zM53.91 38.562l.03.16c10.19-2.79 20.45-5.24 30.79-7.43a.575.575 0 00-.3-.06c-2.32.3-4.65.59-6.97.92-1.46.21-2.95.34-4.36.72-4.55 1.24-9.07 2.57-13.59 3.9-1.88.55-3.73 1.19-5.6 1.79zm1.69 2.75c-4.62 1.13-9.32 1.77-13.73 3.55.01.05.02.1.03.16 4.79-.86 9.59-1.71 14.43-2.58-.27-.42-.47-.73-.73-1.13zm224.72-25.67h20.04c-5.96-.21-13-.3-20.04 0zm24.92.1v-.06h-2.68v.06h2.68zm2.16.07c-.01.01-.02.03-.03.04h1.11v-.04h-1.08zm3.22.01v.06h1v-.06h-1zm20.26.68v-.07h-1.13v.07h1.13zm-141.66 9.14c-.38-.02-.64-.04-.91-.06v.12c.26-.02.52-.04.91-.06zm136.74-9.37c-.02.02-.04.05-.06.07h.8v-.07h-.74zm2.76.2c-.01-.03-.01-.05-.02-.08l-.5.03v.05h.52zm-14.3-.46c-.01-.01-.01-.03-.02-.04h-.35v.04h.37zm7.1.11v.07h.63v-.07h-.63zm-4.4-.08v-.06h-.54v.06h.54z"/></svg>